<?xml version="1.0" encoding="utf-8" ?>
<svg xmlns="http://www.w3.org/2000/svg" xmlns:xlink="http://www.w3.org/1999/xlink" width="210" height="105">
	<path fill="#FDAAC8" transform="scale(0.205078 0.205078)" d="M756.033 186.067C768.267 184.534 778.727 190.831 767.574 194.676C761.205 196.903 749.085 194.019 756.033 186.067Z"/>
	<path fill="#FDAAC8" transform="scale(0.205078 0.205078)" d="M223.319 106.468C232.631 104.075 231.264 118.502 227.311 123.082C218.571 123.651 217.862 110.563 223.319 106.468Z"/>
	<path fill="#FDAAC8" transform="scale(0.205078 0.205078)" d="M706.609 158.102C711.798 157.951 725.817 155.431 723.467 164.857C722.491 166.085 722.029 166.276 720.624 166.846C715.489 167.391 695.743 167.364 706.609 158.102Z"/>
	<path fill="#FDAAC8" transform="scale(0.205078 0.205078)" d="M482.387 269.064C489.373 268.899 533.937 268.264 537.086 269.659C545.224 273.267 536.8 315.259 529.099 317.968C517.316 317.409 535.813 288.738 531.253 277.67C525.726 277.347 464.53 282.157 482.387 269.064Z"/>
	<path fill="#FDAAC8" transform="scale(0.205078 0.205078)" d="M640.327 186.067C650.488 185.962 735.222 185.146 738.736 186.7C743.294 188.715 740.567 193.96 736.624 194.676C723.431 197.324 661.618 194.979 645.924 194.829C640.025 194.772 633.143 190.419 640.327 186.067Z"/>
	<path fill="#FDAAC8" transform="scale(0.205078 0.205078)" d="M569.981 158.102C588.125 157.376 606.61 158.081 624.788 158.089L665.154 158.157C670.048 158.158 689.125 155.955 691.673 161.218C691.998 164.08 689.656 166.133 687.122 166.846C678.559 167.762 669.367 166.828 660.735 166.816L586.953 166.896C584.134 166.924 555.3 167.473 569.981 158.102Z"/>
	<path fill="#FDAAC8" transform="scale(0.205078 0.205078)" d="M421.162 141.251C424.02 141.026 426.883 141.167 429.745 141.251C439.311 146.004 436.795 158.845 435.393 167.562C432.147 187.743 420.196 205.817 403.665 217.676C395.888 223.255 363.775 238.723 369.265 225.779C370.664 222.482 378.796 220.705 382.09 219.504C411.721 207.483 428.125 181.849 427.481 149.685C417.579 149.796 399.129 157.431 396.902 156.732C385.559 148.369 417.357 141.727 421.162 141.251Z"/>
	<path fill="#FDAAC8" transform="scale(0.205078 0.205078)" d="M273.264 139.485C298.73 138.687 317.605 156.363 304.121 157.279C302.211 157.409 288.574 149.972 276.493 149.685C275.353 180.323 286.588 200.828 313.918 216.716C317.197 218.23 331.032 222.967 332.436 224.274C335.701 227.313 332.247 231.189 328.647 231.067C316.292 230.65 295.405 216.288 287.171 207.315C275.021 194.073 257.441 153.867 273.264 139.485Z"/>
	<path fill="#FDAAC8" transform="scale(0.205078 0.205078)" d="M350.328 106.468C373.807 105.066 414.242 195.608 355.988 212.258C355.961 219.895 358.924 240.785 352.963 246.135C342.644 245.819 347.009 220.834 347.04 212.258C299.843 196.859 314.252 127.195 350.328 106.468ZM352.963 115.901C325.462 131.982 311.47 188.8 347.04 203.609C346.986 195.087 342.585 171.314 352.963 171.757C359.305 176.665 356.035 195.977 355.988 203.609C393.774 189.072 375.594 138.609 353.41 116.046L352.963 115.901Z"/>
	<path fill="#FDAAC8" transform="scale(0.205078 0.205078)" d="M223.319 137.914C235.357 137.625 229.614 172.081 229.611 182.891L229.601 269.064L433.355 269.054C438.472 269.035 461.289 267.181 464.733 269.903C476.882 279.502 447.571 277.671 446.323 277.67L286.388 277.67C288.56 313.788 313.174 344.585 348.847 353.064C366.38 357.231 394.157 355.422 412.934 355.449C445.113 355.496 482.013 360.47 507.163 335.706C509.703 333.204 512.27 329.438 515.306 327.65C518.319 325.876 522.337 329.024 521.05 332.487C517.502 342.024 502.267 351.139 492.858 355.451C499.207 355.968 505.678 355.51 512.047 355.486L547.979 355.444C561.424 355.437 580.841 356.722 593.657 355.451C592.798 351.9 583.571 345.007 581.351 334.333C579.874 327.233 580.067 272.815 581.204 265.328C586.69 229.233 625.924 235.138 651.513 235.134L793.296 235.131C818.339 235.137 846.943 232.276 853.359 266.379C854.718 273.6 854.684 323.592 853.354 330.888C851.565 340.708 845.683 349.771 837.483 355.451L887.254 355.436C895.637 355.416 904.852 354.538 913.12 355.718C939.398 359.467 939.924 397.344 913.713 402.165C906.701 403.454 898.73 402.519 891.589 402.498L682.926 402.536C682.057 402.538 648.495 405.215 658.105 395.299C661.029 392.283 716.257 393.774 723.253 393.774L881.28 393.783C890.799 393.78 900.924 394.479 910.352 393.332C926.803 391.33 928.281 368.563 911.935 365.091C906.367 363.908 900.117 364.417 894.437 364.426L869.375 364.479L134.151 364.452C127.084 364.43 119.301 363.61 112.324 364.42C96.8889 366.211 95.4357 387.605 109.741 392.574C116.68 394.984 133.899 393.788 141.962 393.785L620.214 393.748C621.332 393.738 649.356 391.422 640.879 400.288C636.411 404.961 610.973 402.465 604.453 402.476L135.405 402.482C127.826 402.506 119.925 402.982 112.381 402.333C84.1323 399.9 83.4087 360.044 108.893 355.832C114.925 354.836 121.087 355.39 127.17 355.418L261.767 355.451C225.327 332.571 220.489 310.94 220.49 268.271L220.507 231.294C220.515 217.936 217.182 143.74 223.319 137.914ZM614.072 243.963C601.519 247.268 591.377 254.833 589.671 268.264C588.572 276.922 588.653 326.976 590.578 333.966C596.598 355.813 616.671 355.535 634.789 355.499L771.386 355.451C769.211 351.535 750.722 340.952 752.189 331.499C752.6 328.849 755.036 326.64 757.754 327.558C767.331 330.794 765.703 355.487 808.397 355.329C822.751 355.275 835.882 349.999 842.033 335.84C844.089 331.108 847.107 313.715 844.5 309.25C846.618 305.008 844.528 296.703 844.435 291.962C844.045 272.046 846.52 247.801 818.149 244.565C806.721 243.261 744.162 242.933 735.511 246.019C724.795 249.842 717.946 263.336 722.043 274.17C726.6 286.219 763.902 295.638 755.45 314.359C750.16 326.076 745.008 305.395 744.648 304.842C736.174 291.84 705.259 292.13 712.256 259.596C713.325 254.627 720.439 245.911 720.624 243.963C696.961 243.357 673.134 243.988 649.453 243.975L626.793 243.872C622.681 243.837 618.138 243.428 614.072 243.963ZM234.256 277.67C218.154 278.883 238.217 322.357 244.816 330.559C265.509 356.281 299.925 357.386 330.211 355.451C322.61 351.894 315.85 347.713 309.35 342.403C307.162 340.66 304.999 338.839 302.748 337.181C257.932 349.04 232.197 292.399 248.917 290.514C258.804 289.399 269.115 291.342 279.06 290.482C278.238 286.203 277.406 281.931 276.493 277.67L234.256 277.67ZM253.07 299.052C259.668 319.418 274.606 331.933 296.332 329.842C290.202 317.877 285.648 314.168 281.138 299.052C271.834 299.106 262.341 298.601 253.07 299.052Z"/>
	<path fill="#FDAAC8" transform="scale(0.205078 0.205078)" d="M608.613 260.748C615.889 259.279 616.595 270.702 610.553 273.252C603.501 274.943 603.461 263.807 608.613 260.748Z"/>
	<path fill="#FDAAC8" transform="scale(0.205078 0.205078)" d="M608.613 284.748C616.262 284.091 618.309 311.859 610.553 314.065C601.193 314.438 604.019 287.213 608.613 284.748Z"/>
</svg>
